#!OML:ASF Y:\EmotionMaleHayes\Project 1\Capture day 1\Session 1\Male1.ASF
:FULLY-SPECIFIED
:DEGREES
222
root -30.1904 17.0545 0.836117 40.5302 86.3286 40.5131
lowerback 4.70924 1.36491 -5.41171
upperback -0.416273 1.50987 -0.229612
thorax -3.20881 0.845821 2.68461
lowerneck -20.4993 3.49716 4.6657
upperneck 26.1562 4.35333 -2.14811
head 12.1898 2.24064 -0.855213
rclavicle 1.93194e-015 -8.15017e-015
rhumerus -35.1352 8.07815 -91.7802
rradius 30.4899
rwrist 4.93676
rhand -10.0148 -30.5637
rfingers 7.12502
rthumb 15.9694 -59.9254
lclavicle 1.93194e-015 -8.15017e-015
lhumerus -32.1906 -7.78347 92.2003
lradius 21.918
lwrist -20.614
lhand -11.5618 -27.4118
lfingers 7.12502
lthumb 14.4792 2.06304
rfemur 7.75376 -2.59184 10.8084
rtibia 3.53263
rfoot -15.2999 -3.17791
rtoes 5.18148
lfemur 10.6709 -1.39913 -17.0471
ltibia -1.65535
lfoot -10.9569 10.1948
ltoes -16.3147
223
root -30.1913 17.0508 0.839493 39.332 86.2715 39.2214
lowerback 4.61044 1.37037 -5.47577
upperback -0.392868 1.52215 -0.16466
thorax -3.13363 0.851131 2.78924
lowerneck -20.6143 3.53382 4.62806
upperneck 26.1625 4.42518 -2.19706
head 12.2183 2.25994 -0.853814
rclavicle 2.27329e-014 -1.55549e-014
rhumerus -35.0886 8.08146 -91.6857
rradius 30.4791
rwrist 4.96026
rhand -10.0519 -30.3355
rfingers 7.12502
rthumb 15.9337 -59.7001
lclavicle 2.27329e-014 -1.55549e-014
lhumerus -32.1267 -7.84101 92.2729
lradius 21.9343
lwrist -20.5149
lhand -12.2813 -27.3405
lfingers 7.12502
lthumb 13.7859 2.1827
rfemur 7.45304 -2.77031 10.831
rtibia 3.8924
rfoot -15.3992 -3.11715
rtoes 4.31299
lfemur 10.5345 -1.20807 -16.946
ltibia -1.49022
lfoot -11.0962 10.0382
ltoes -15.7144
224
root -30.1877 17.0489 0.838901 39.606 86.1703 39.4497
lowerback 4.51342 1.38487 -5.56084
upperback -0.345786 1.54461 -0.177023
thorax -3.03427 0.860346 2.82511
lowerneck -20.7305 3.55929 4.6531
upperneck 26.1668 4.46108 -2.25253
head 12.2469 2.26862 -0.871346
rclavicle 3.08893e-015 -9.59136e-015
rhumerus -35.0594 8.01683 -91.6229
rradius 30.5091
rwrist 4.94856
rhand -10.0712 -30.2811
rfingers 7.12502
rthumb 15.915 -59.6471
lclavicle 3.08893e-015 -9.59136e-015
lhumerus -31.9637 -7.78367 92.2409
lradius 21.8333
lwrist -20.5256
lhand -13.9871 -26.83
lfingers 7.12502
lthumb 12.1415 2.79769
rfemur 7.16884 -2.98396 10.6979
rtibia 4.37109
rfoot -15.6025 -2.96336
rtoes 4.2778
lfemur 10.4914 -1.10562 -17.0339
ltibia -1.4121
lfoot -11.2424 9.94647
ltoes -15.5184
225
root -30.1856 17.049 0.839646 39.5281 86.1152 39.3535
lowerback 4.49867 1.41835 -5.58661
upperback -0.307308 1.58969 -0.204249
thorax -2.99011 0.88125 2.80879
lowerneck -20.9015 3.52356 4.73942
upperneck 26.2258 4.39982 -2.34904
head 12.3069 2.23469 -0.930164
rclavicle 5.00999e-015 8.00108e-015
rhumerus -34.978 7.90023 -91.5887
rradius 30.4989
rwrist 4.88409
rhand -10.0515 -30.2497
rfingers 7.12502
rthumb 15.9341 -59.6142
lclavicle 5.00999e-015 8.00108e-015
lhumerus -31.8781 -7.85584 92.2141
lradius 21.8396
lwrist -20.4843
lhand -12.8644 -27.1589
lfingers 7.12502
lthumb 13.2239 2.40162
rfemur 6.98069 -2.73018 10.7598
rtibia 4.66808
rfoot -15.8199 -3.09586
rtoes 5.14443
lfemur 10.5046 -0.979452 -17.0166
ltibia -1.4207
lfoot -11.3038 9.80142
ltoes -15.5905
226
root -30.1858 17.049 0.844878 36.4632 86.1122 36.2206
lowerback 4.48582 1.47594 -5.48823
upperback -0.342991 1.67249 -0.135441
thorax -3.02656 0.922695 2.81838
lowerneck -20.8606 3.48596 4.73357
upperneck 26.1711 4.35577 -2.37759
head 12.2757 2.21065 -0.948224
rclavicle -2.38464e-014 6.65929e-015
rhumerus -35.0408 7.80401 -91.5012
rradius 30.508
rwrist 4.85883
rhand -9.80948 -30.1776
rfingers 7.12502
rthumb 16.1671 -59.5234
lclavicle -2.38464e-014 6.65929e-015
lhumerus -31.9544 -7.93896 92.2676
lradius 21.8862
lwrist -20.4454
lhand -13.4819 -27.3065
lfingers 7.12502
lthumb 12.6286 2.29171
rfemur 6.72789 -2.05035 11.2215
rtibia 4.89517
rfoot -16.0988 -3.46503
rtoes 6.3449
lfemur 10.4064 -0.561024 -16.6115
ltibia -1.29329
lfoot -11.3764 9.38646
ltoes -14.9093
227
root -30.184 17.047 0.8494 34.3602 86.0756 34.0409
lowerback 4.42941 1.52957 -5.41384
upperback -0.37091 1.75113 -0.101304
thorax -3.02962 0.961327 2.80697
lowerneck -20.8357 3.47962 4.68055
upperneck 26.1309 4.34739 -2.32198
head 12.2516 2.20893 -0.920218
rclavicle -4.13255e-015 4.96962e-015
rhumerus -35.1132 7.53775 -91.3793
rradius 30.536
rwrist 4.99467
rhand -9.39005 -30.3881
rfingers 7.12502
rthumb 16.5709 -59.7005
lclavicle -4.13255e-015 4.96962e-015
lhumerus -32.0068 -8.06977 92.3277
lradius 21.891
lwrist -20.3456
lhand -13.9427 -27.272
lfingers 7.12502
lthumb 12.1844 2.35312
rfemur 6.4123 -1.84644 11.461
rtibia 5.26961
rfoot -16.3699 -3.51312
rtoes 7.0209
lfemur 10.2627 -0.195302 -16.3325
ltibia -1.08492
lfoot -11.5376 9.02877
ltoes -14.6571
228
root -30.1814 17.0472 0.853098 35.7296 85.9099 35.4293
lowerback 4.44324 1.53193 -5.59008
upperback -0.350218 1.74413 -0.139278
thorax -3.01975 0.959986 2.86689
lowerneck -20.8577 3.50212 4.62385
upperneck 26.1578 4.39737 -2.31385
head 12.2669 2.22645 -0.898833
rclavicle 7.14693e-015 -2.04748e-014
rhumerus -35.121 7.42314 -91.3532
rradius 30.5912
rwrist 5.03321
rhand -9.3486 -30.4183
rfingers 7.12502
rthumb 16.6109 -59.7275
lclavicle 7.14693e-015 -2.04748e-014
lhumerus -32.0373 -8.06594 92.325
lradius 21.9031
lwrist -20.2356
lhand -13.5013 -27.2707
lfingers 7.12502
lthumb 12.6099 2.32865
rfemur 6.15949 -2.0772 11.2229
rtibia 5.7596
rfoot -16.5355 -3.34372
rtoes 6.44257
lfemur 10.3516 -0.44634 -16.636
ltibia -1.18767
lfoot -11.7002 9.32743
ltoes -14.8175
